<svg id="visual" viewBox="0 0 900 600" width="900" height="600" xmlns="http://www.w3.org/2000/svg" xmlns:xlink="http://www.w3.org/1999/xlink" version="1.1"><rect x="0" y="0" width="900" height="600" fill="#f4f4f4"></rect><defs><linearGradient id="grad1_0" x1="33.3%" y1="0%" x2="100%" y2="100%"><stop offset="20%" stop-color="#ffffff" stop-opacity="1"></stop><stop offset="80%" stop-color="#ffffff" stop-opacity="1"></stop></linearGradient></defs><defs><linearGradient id="grad2_0" x1="0%" y1="0%" x2="66.7%" y2="100%"><stop offset="20%" stop-color="#ffffff" stop-opacity="1"></stop><stop offset="80%" stop-color="#ffffff" stop-opacity="1"></stop></linearGradient></defs><g transform="translate(900, 0)"><path d="M0 297.5C-58.2 293.3 -116.4 289.1 -148.7 257.6C-181 226.2 -187.4 167.5 -207.8 120C-228.3 72.5 -262.9 36.3 -297.5 0L0 0Z" fill="#0CA554"></path></g><g transform="translate(0, 690)"><path d="M0 -297.5C52.8 -290.1 105.6 -282.8 148.7 -257.6C191.9 -232.4 225.4 -189.4 248.5 -143.5C271.7 -97.6 284.6 -48.8 297.5 0L0 0Z" fill="#0CA554"></path></g></svg>